<svg xmlns="http://www.w3.org/2000/svg" id="Camada_1" data-name="Camada 1" viewBox="0 0 514.81 254.5">
  <defs>
    <style>
      .cls-1{fill:#fff}.cls-3{fill:#f59a3b}.cls-4{fill:#7e71b2}.cls-5{fill:#35398e}.cls-6{fill:#f08036}.cls-7{fill:#de3a8c}.cls-8{fill:#1d1d1b}
    </style>
  </defs>
  <path d="M472.8 160.75a23.21 23.21 0 0 0-4.53-3.9c-.3-.2-.6-.39-.91-.58l-5.87-3.52c4.94-5.07 7.89-11.79 8.39-19.22.22-3.24.34-14.46-7.24-22.75l-.24-.27c.16-4.35-.07-9.21-1.73-14.02-3.19-9.27-10.87-15.82-20.52-17.52a25.9 25.9 0 0 0-4.48-.39c-.57 0-1.13.02-1.69.06-2.69-2.4-5.96-4.21-9.67-5.14-2.39-.6-6.16-1.32-10.48-1.32-3.38 0-6.59.44-9.59 1.32-2.22-.43-4.59-.69-7.08-.69-1.41 0-2.81.08-4.19.25-.18-.07-.37-.14-.55-.21a31.73 31.73 0 0 0-4.1-11.9c-5.43-9.2-14.76-14.69-24.96-14.69-.92 0-1.85.05-2.76.14-6.41.64-12.34 2.93-17.2 6.49-5.04-3.52-11.01-5.56-17.27-5.56-.64 0-1.29.02-1.93.06-9.06.6-15.85 5.2-21.84 9.25-4.51 3.05-9.17 6.2-15.01 8.1-3.48 1.13-7.46 1.68-12.19 1.68-2.8 0-5.43-.18-7.98-.36-1.28-.09-2.51-.17-3.72-.22.49-7.96-3.18-15.69-9.83-20.3-7.18-4.98-16.33-5.72-21.15-5.73-2.35 0-4.65.16-6.89.49-1.77-1.24-5.82-3.75-11.56-5.38-2.49-.92-5.07-1.69-7.72-2.28-1.13-.39-2.31-.69-3.51-.89-.84-.14-5.27-.86-10.44-.86-1.89 0-3.73.1-5.46.28-.6.06-1.19.15-1.77.26-1.83.21-3.66.5-5.47.87-3.04.04-6.07.68-8.91 1.94-.33.15-3.37 1.5-6.82 3.32-.4.21-.8.43-1.18.67-.61-.17-1.23-.31-1.85-.44-.03 0-.08-.02-.15-.05-.09-.03-.19-.06-.29-.1l-.19-.07c-.32-.12-.65-.25-.98-.4-.25-.11-.48-.21-.66-.3-.13-.06-.24-.11-.32-.16h-.02a22.473 22.473 0 0 0-10.76-2.74c-1.4 0-2.8.13-4.19.39-.78-6.02-2.68-11.15-6.75-15.62-4.35-4.77-10.27-7.54-16.67-7.8-.35-.01-.71-.02-1.07-.02-8.97 0-20.46 4.97-25.82 18.92-2.2 5.72-3.37 12.89-3.69 22.52-.02.29-.03.59-.03.89 0 0 0 .4-.01 1.02-.04 2.32-.03 4.66.05 6.98a22.71 22.71 0 0 0-.1 3.5l.24 4.77c.09 1.76.38 3.49.86 5.14.02 1.29.15 2.58.39 3.87l.65 3.44c.24 1.27.58 2.51 1.02 3.7.24 1.11.49 2.19.73 3.21-2.5 7.98-3.81 16.71-3.83 25.69v.59c-14.04 3.67-28.53 8.11-41.71 13.91a23.018 23.018 0 0 0-13.56 18.22 22.995 22.995 0 0 0 8.71 20.98c18.34 14.26 31.08 26.39 37.92 36.07 4.97 9.9 13.57 15.72 23.47 15.72.77 0 1.55-.04 2.31-.12 18.06-1.83 80.82-10.43 83.48-10.8 5.92-.81 11.26-3.89 14.93-8.54 12.38-7.68 31.09-17.41 41.99-19.7-.93 4.68-.43 9.61 1.58 14.14l4.49 10.1c3.78 8.51 12.28 14.01 21.64 14.01 3.41 0 6.74-.71 9.88-2.11l4.93-2.2s.06-.03.09-.04c.65-.16 1.3-.34 1.94-.56.89-.29 1.76-.65 2.6-1.04 1.14-.1 2.27-.27 3.39-.53 1.16-.26 2.28-.61 3.37-1.02.63-.01 1.25-.04 1.88-.1.85-.08 1.68-.21 2.49-.37.31.01.62.02.94.02.76 0 1.52-.04 2.28-.11.42-.04.84-.11 1.26-.18.1 0 .2.02.3.02a24.006 24.006 0 0 0 3.4-.1c1.08.19 2.18.31 3.3.36.26.01.52.01.77.02.34.07.67.15 1.02.21.83.15 1.66.25 2.5.32.99.32 2.01.57 3.06.76.02 0 .04 0 .06.01.35.06.71.09 1.06.14.59.22 1.18.42 1.78.6.68.2 1.37.36 2.07.5.16.07.31.14.47.21 1.05.43 2.13.78 3.22 1.06a23.958 23.958 0 0 0 5.35 2.28c1.04.88 2.15 1.69 3.36 2.4l5.23 3.09c2.41 1.42 5.05 2.39 7.79 2.88a24.63 24.63 0 0 0 7.7 3.99c2.1.65 4.3 1.01 6.52 1.08a24.732 24.732 0 0 0 11.51 2.87c.26 0 .52 0 .79-.01a24.111 24.111 0 0 0 5.86.71c1.3 0 2.56-.12 3.8-.31.95.11 1.92.19 2.9.19s1.94-.06 2.9-.17c2.51-.29 4.97-.98 7.26-2.01.63.05 1.26.08 1.9.08 2.49 0 4.97-.38 7.35-1.14l5.78-1.83c1.62-.51 3.15-1.2 4.59-2.01 1.31-.38 2.59-.87 3.81-1.46l4.84-2.33c1.16-.56 2.26-1.21 3.28-1.93 1.12-.49 2.22-1.06 3.27-1.72.96-.6 1.86-1.26 2.7-1.97 1.02-.46 2.02-.99 2.98-1.6a24.43 24.43 0 0 0 3.39-2.58 24.066 24.066 0 0 0 5.12-3.67c.92-.52 1.8-1.09 2.64-1.73a24.22 24.22 0 0 0 3.21-2.92c.8-.52 1.58-1.08 2.31-1.69.8-.67 1.54-1.38 2.23-2.13.95-.64 1.86-1.33 2.72-2.1.83-.75 1.6-1.55 2.3-2.39.92-.63 1.81-1.32 2.65-2.08 4.83-4.35 7.8-10.56 8.14-17.02.33-6.31-1.8-12.36-5.99-17.03Z" style="fill:#f6f6f6"/>
  <path d="M445.65 126.29c-1.11-1.21-6.82-7.42-6.34-14.78.48-7.36-.48-9.42-3.17-9.9s-4.76 3.17-4.68 4.6c.08 1.43-.24 4.12-.24 4.12s-6.34-1.18-9.67 2.19c-3.33 3.36-7.13 7.01-4.91 17.95 2.22 10.94 14.27 9.99 18.39 5.23 2.22 1.59 5.71 4.62 9.51 1.44s2.22-9.63 1.11-10.85Zm-13.32 2.11c-2.38 1.27-6.82.16-7.61-3.01s1.11-6.26 3.17-8c2.06-1.74 3.57.63 3.57.63.72.95.72 1.86.87 3.98.16 2.12 2.38 5.13 0 6.4ZM355.74 145.15c-.21-5.71-5.92-23.25-7.4-28.23-1.48-4.98-4.23-23.98-11.84-23.98s-9.51 16.7-11.41 23.98c-1.9 7.28-5.14 23.58-5.28 31.19-.05 2.57 1.9 5.5 5.28 5.5s6.76-7.61 5.92-13.11c2.54 1.06 8.03 1.06 11.84-1.06-.63 2.33 2.33 21.77 9.09 20.08 6.76-1.69 4.02-8.67 3.8-14.37Zm-14.59-14.16c-3.17 2.33-9.72 1.27-9.72 1.27.42-8.24.21-21.56 3.8-20.72 3.59.85 6.13 13.32 5.92 19.45Z" class="cls-8"/>
  <path d="M409.32 128.88c-.16-5.23 3.01-19.98 4.28-21.09 1.27-1.11 3.65-.07 5.07-12-3.33-.84-10.46-1.63-11.57 3.28 0 0-7.93-5.55-14.74-2.22-.83.41-1.67.86-2.49 1.36 0 0-2.43-2.78-6.07-4.05-3.65-1.27-3.17 0-3.17 0s-1.12 7.58 2.21 10.37h.01c-2.48 3.4-4.13 7.82-4.13 13.58 0 11.73 7.93 13.95 11.41 13.63 3.49-.32 8.24-2.7 8.24-2.7 3.8 5.39 8.72 14.11 6.82 24.89-1.9 10.78-7.61 16.17-16.65 16.49-9.04.32-15.06-3.8-15.38-9.35-.32-5.55 3.33-11.41 9.83-10.46 6.5.95 9.33-3.01 7.12-7.61s-10.45-3.8-15.05-.48c-4.6 3.33-14.59 10.78-10.78 25.21 3.8 14.43 13.48 17.76 23.3 17.91 9.83.16 18.23-6.18 22.51-11.73 4.28-5.55 8.24-13.95 7.77-24.57-.48-10.62-7.61-18.39-8.56-20.45Zm-19.79-30.45c-.26.16-.52.33-.77.5.26-.17.51-.34.77-.5Zm-3.96 3.03c-.11.11-.23.21-.34.32.11-.11.23-.21.34-.32Zm2.71-2.2c-.2.14-.4.29-.6.44.2-.15.4-.29.6-.44Zm-1.12.83c-.18.14-.35.29-.53.43.17-.15.35-.29.53-.43Zm-2.52 2.3c-.11.12-.23.24-.34.36.11-.12.22-.24.34-.36Zm-.92 1.03c-.1.12-.2.24-.3.37.1-.12.2-.25.3-.37Zm14.51 15.63c-2.54 2.7-8.24 1.11-9.35 0s-1.59-10.62 5.55-13.63c5.23-2.06 7.61 0 7.61 0s-1.27 10.94-3.8 13.63Z" class="cls-8"/>
  <path d="M386.6 184.63c1.12.02 2.23-.06 3.31-.2-.8-.92-1.87-2.63-2.68-5.72-1.48-5.66-5.39-2.7-5.92-2.06-.49.59-1.74 3.61-.66 7.41 1.94.37 3.94.54 5.95.57ZM415.97 158.41c.55-2.38.89-4.93.94-7.64-1.02.17-2.65.3-4.1-.22-2.33-.85-3.7-.64-3.49 1.69.19 2.11 2.95 4.77 6.65 6.18ZM404.29 177.85c1.92-1.59 3.56-3.3 4.83-4.95.27-.35.54-.71.81-1.09-1.19-.21-2.84-.73-4.19-2.03-2.43-2.33-4.23-1.69-4.76 0-.48 1.53 0 5.29 3.32 8.07Z" class="cls-6"/>
  <path d="M210.33 136.59c.37 4.39.52 15.27-.25 19.58 1.35 1.91 1.33 4.36-1.45 4.36s-9.31.27-8.98-.95c.31-1.15.7-13.28.14-16.78-1.09.05-2.18.09-3.28.15-4.36 1.04-6.47 1.37-8.94 1.14-.56-.05-1.4-.2-2.38-.4-3.81.31-7.48.68-10.89 1.1.1 5.84-.91 14.24-.91 14.24a9.367 9.367 0 0 0-1.73-1.77c4.9 6.41 8.81 12.62 15.71 25.21 0 0 27.89-34.09 56.6-49.43-4.13-1.39-24.55-.25-33.63 3.55Z" class="cls-5"/>
  <path d="M187.37 183.47h-.09a.978.978 0 0 1-.78-.52c-6.73-12.27-10.67-18.6-15.63-25.08-.31-.4-.27-.97.09-1.32.36-.35.93-.38 1.32-.07.12.1.24.19.35.29.29-2.86.74-8.03.67-11.96 0-.51.37-.95.88-1.01 3.34-.42 7.02-.79 10.93-1.11.1 0 .19 0 .29.02 1.01.21 1.78.34 2.26.39 2.22.2 4.07-.04 8.62-1.12l.18-.03 3.28-.15a.99.99 0 0 1 1.03.84c.53 3.26.25 13.86-.07 16.64 1.23.33 4.9.29 6.56.27h.31c.7-.67 1.41-1.34 2.13-2.01-.11-.25-.25-.52-.44-.78a.963.963 0 0 1-.17-.75c.75-4.21.6-15.05.24-19.32-.04-.43.21-.84.61-1.01 9.55-4 30.07-5.01 34.34-3.57.38.13.65.47.68.86.03.4-.17.78-.53.97-11.51 6.15-22.96 15.42-32.5 24.26.07.66-.03 1.27-.3 1.8-.3.58-1.09 1.55-3 1.55h-.24c-11.92 11.46-20.09 21.38-20.24 21.57-.19.23-.48.37-.77.37Zm-13-24.24c4.02 5.53 7.67 11.5 13.17 21.48 2.37-2.79 8.99-10.41 17.95-19.15-4-.01-5.9-.21-6.58-1.08-.26-.33-.34-.75-.23-1.16.24-.96.6-11.28.22-15.48-.75.03-1.5.07-2.25.1-4.17.99-6.5 1.39-9.17 1.15-.55-.05-1.32-.18-2.35-.39-3.49.29-6.79.62-9.82.98 0 5.75-.89 13.15-.93 13.48 0 .02 0 .05-.01.07Zm36.76-3.28c.04.06.07.11.1.17 8.8-8.1 19.16-16.5 29.7-22.54-6.71-.47-21.82.73-29.55 3.67.31 4.55.44 14.21-.25 18.7Z"/>
  <path d="m209.01 132.55-.27.12c-4.86 1.92-10.59 2.89-17.02 2.89-24.06 0-33.32-9.32-38.85-14.89-.47-.47-.9-.91-1.32-1.32-2.72 1.61-6.88 2.84-8.38 2.84-.43 0-.8-.08-1.13-.25-.8-.4-1.25-1.24-1.18-2.18.08-1.06 1.1-2.95 2.78-4.68-3.76-.58-7.07-1.72-7.91-3.86-.23-.59-.6-2.14.99-3.73 1.42-1.42 3.49-2.43 5.35-3.13-1.55-1.26-3.17-2.9-4-4.74-1.16-2.57-2.48-8.22-.26-9.6.44-.27.96-.39 1.74-.39 1.38 0 3.89.35 7.19 1.28.22-1.71.72-3.63 1.47-5.65-7.66-1.96-18.94-.99-22.27.18-4.36-13.92-5.59-18.19-5.86-23.23-.27-5.04 2.32-28.17-1.09-28.31s-6.27 4.36-6.7 19.89c-.42 15.53 2.47 27.56 4.92 36.29-7.23 15.95-4.64 33.62-3.68 37.16.95 3.55 2.05 6 2.05 8.86.89-.31 1.75-.51 2.58-.63 3.25-1.01 6.25-1.83 8.88-2.46.92.29 1.84.6 2.75.94 3.3-1.47 8.29-3.44 8.29-3.44s14.32 6.41 21.14 12.55c4.27 3.77 8.49 8.83 12.29 14.05.72.55 1.34 1.17 1.89 1.91 0 0 1.64-13.58.55-18.22 0 0 10.64 3 13.64 3.27s5.45-.27 12.08-1.91c.76 2.32.33 16.17 0 17.4s6.2.95 8.98.95 2.81-2.45 1.45-4.36c1.5-8.44-.24-19.32-1.07-23.62Z" class="cls-3"/>
  <path d="M118.83 33.92h.15c3.41.14.82 23.27 1.09 28.31.27 5.04 1.5 9.3 5.86 23.23 1.95-.69 6.62-1.3 11.7-1.3 3.6 0 7.4.31 10.57 1.12-.75 2.02-1.25 3.94-1.47 5.65-3.3-.93-5.81-1.28-7.19-1.28-.78 0-1.3.12-1.74.39-2.22 1.39-.9 7.03.26 9.6.83 1.84 2.45 3.48 4 4.74-1.86.69-3.94 1.71-5.35 3.12-1.59 1.59-1.22 3.14-.99 3.73.84 2.14 4.15 3.27 7.91 3.86-1.68 1.73-2.7 3.62-2.78 4.68-.07.95.38 1.78 1.18 2.18.33.17.7.25 1.13.25 1.51 0 5.66-1.23 8.38-2.84.41.4.85.84 1.32 1.32 5.53 5.57 14.78 14.89 38.85 14.89 6.43 0 12.16-.97 17.02-2.89l.27-.12c.83 4.31 2.57 15.18 1.07 23.62 1.35 1.91 1.33 4.36-1.45 4.36-.86 0-2.07.03-3.32.03-2.83 0-5.88-.13-5.65-.98.33-1.23.76-15.08 0-17.4-5.55 1.37-8.17 1.98-10.64 1.98-.48 0-.95-.02-1.44-.07-3-.27-13.64-3.27-13.64-3.27 1.09 4.64-.55 18.22-.55 18.22a9.505 9.505 0 0 0-1.89-1.91c-3.81-5.21-8.02-10.27-12.29-14.05-6.82-6.14-21.14-12.55-21.14-12.55s-4.99 1.96-8.29 3.44c-.91-.33-1.83-.65-2.75-.94-2.64.62-5.63 1.45-8.88 2.46-.83.12-1.69.32-2.58.63 0-2.86-1.09-5.32-2.05-8.86s-3.55-21.21 3.68-37.16c-2.45-8.73-5.35-20.76-4.92-36.29.42-15.3 3.2-19.9 6.55-19.9m0-3c-7.91 0-9.26 12.19-9.55 22.81-.41 14.94 2.12 26.64 4.74 36.14-6.83 15.99-4.72 33.28-3.4 38.17.28 1.04.57 2 .83 2.84.62 2.03 1.11 3.62 1.11 5.24 0 .97.47 1.88 1.26 2.45.51.37 1.12.55 1.74.55.33 0 .67-.06.99-.17.66-.23 1.32-.39 2.02-.49.16-.02.31-.06.46-.1 2.83-.88 5.48-1.62 7.88-2.21.59.19 1.2.41 1.83.64.34.12.69.18 1.03.18.48 0 .95-.12 1.38-.33 2.22-.99 5.2-2.19 6.82-2.84 3.46 1.62 13.91 6.73 19.22 11.51 3.67 3.24 7.66 7.81 11.88 13.59.17.23.37.44.6.61.52.39.93.81 1.3 1.31a2.998 2.998 0 0 0 3.18 1.11 3.005 3.005 0 0 0 2.21-2.54c.13-1.1 1.02-8.74.93-14.55 3.44.91 8.02 2.05 10 2.23.59.05 1.15.08 1.71.08 2.25 0 4.47-.41 8.02-1.25.13 4.2-.05 11.46-.3 12.99-.23.98-.02 1.99.6 2.79 1.23 1.6 3.45 1.88 7.98 1.88.7 0 1.39 0 2.01-.02.49 0 .94-.01 1.32-.01 2.17 0 3.92-.96 4.78-2.63.79-1.54.7-3.49-.2-5.32 1.26-8.74-.44-19.33-1.25-23.6-.17-.88-.73-1.64-1.52-2.07-.44-.24-.94-.36-1.43-.36-.38 0-.77.07-1.13.22l-.21.09c-4.54 1.79-9.9 2.69-15.96 2.69-22.82 0-31.52-8.77-36.72-14-.48-.48-.93-.94-1.35-1.35-.58-.56-1.33-.85-2.09-.85-.52 0-1.05.14-1.53.42-1.77 1.05-4.18 1.85-5.67 2.22.32-.51.79-1.15 1.43-1.81.78-.8 1.05-1.98.69-3.04a3.012 3.012 0 0 0-2.38-2.01c-4.84-.75-5.57-1.98-5.58-1.99-.04-.11.15-.35.32-.52.88-.88 2.36-1.72 4.28-2.43a3.003 3.003 0 0 0 1.92-2.32 2.99 2.99 0 0 0-1.07-2.82c-1.56-1.27-2.66-2.53-3.16-3.64-.88-1.94-1.33-4.59-1.18-5.76 1.11.01 3.32.33 6.31 1.17a3.018 3.018 0 0 0 2.47-.39c.73-.48 1.21-1.26 1.32-2.12.19-1.46.64-3.18 1.3-4.98.3-.8.24-1.68-.16-2.44-.39-.75-1.09-1.3-1.91-1.51-3.93-1-8.32-1.21-11.32-1.21-3.5 0-7.01.28-9.67.74-3.67-11.76-4.67-15.55-4.9-19.83-.07-1.27.09-4.26.26-7.43.74-13.82.68-19.99-1.54-22.44-.71-.78-1.67-1.24-2.69-1.28h-.27Z"/>
  <path d="M117.21 90.1c-7.23 15.95-4.64 33.62-3.68 37.16.95 3.55 2.05 6 2.05 8.86.89-.31 1.75-.51 2.58-.63 2.97-.92 5.71-1.68 8.18-2.28.31-4.48-.1-11.27-4.35-16.29-6.89-8.14-4.77-26.82-4.77-26.82ZM191.71 135.55c-3.19 0-6.12-.17-8.82-.47-2.64-.22-5.36-.67-8.09-1.42-4.04-1.01-7.4-2.36-10.22-3.86 3.24 4.04 15.56 16.36 37.79 4.72-3.29.68-6.85 1.03-10.67 1.03ZM145.48 134.11c2.11 1.69.97.59.97.59 4.35 2.35 9.44 5.39 12.76 8.38.46.41.92.83 1.38 1.27.24-.69 1.13-3.86.25-10.95-3.18-3.59-4.24 4.78-15.35.72Z" class="cls-6"/>
  <path d="M133.27 83.89s2.83 3.54 2.56 8.71c-.07 1.42 2.8 2.75 3.35-.11.55-2.86-.24-7.5-2.01-8.7-1.08-.05-3.9.1-3.9.1ZM141.54 84.2s2.1 5 .74 9.91c-.58 2.18 4.42 1.08 4.44-2.69.02-3.78-.82-6.64-.82-6.64l-4.35-.57Z"/>
  <path d="M185.25 181.81s-30.46-43.22-51.98-51.27c-5.65.41-49.26 13.18-71.35 22.91 11.05 8.59 27.41 15.48 38.79 39.48l84.55-11.11Z" class="cls-5"/>
  <path d="M100.71 193.92c-.38 0-.74-.22-.9-.57-8.92-18.81-20.67-26.79-31.04-33.83-2.65-1.8-5.16-3.5-7.46-5.29-.28-.22-.42-.56-.38-.91.04-.35.27-.65.59-.79 22.67-9.98 66.01-22.58 71.68-22.99.15 0 .29.01.42.06 21.56 8.07 51.2 49.86 52.45 51.63.2.29.24.66.1.98s-.44.54-.79.59l-84.55 11.11h-.13Zm-36.82-40.24c1.88 1.39 3.89 2.76 6 4.19 9.94 6.75 22.28 15.13 31.41 33.97l82.17-10.8c-5.34-7.33-31.49-42.24-50.33-49.48-6.12.66-47.12 12.67-69.24 22.13Z"/>
  <path d="M183.48 182.04s-22.5-31.94-59.9-51.51c-16.51 3.9-44.65 9.84-66.74 19.56 11.05 8.59 32.59 25.86 43.86 42.82l82.78-10.88Z" class="cls-4"/>
  <path d="M100.71 194.42c-.5 0-.97-.25-1.25-.67-11.85-17.83-35.7-36.37-43.53-42.47a1.5 1.5 0 0 1-.57-1.37c.06-.52.4-.98.88-1.19 19.7-8.67 44.52-14.43 60.94-18.24 2.15-.5 4.19-.97 6.06-1.42.35-.08.72-.04 1.04.13 37.28 19.51 60.2 51.65 60.43 51.97.3.43.36.99.15 1.47s-.66.82-1.18.88l-82.77 10.88c-.07 0-.13.01-.2.01Zm-40.94-43.95c9.27 7.25 30.3 24.19 41.67 40.84l79.31-10.43c-5.59-7.25-26.38-32.4-57.36-48.76-1.73.41-3.58.84-5.53 1.29-15.67 3.63-39.03 9.05-58.09 17.06Z"/>
  <path d="M159.6 144.35c-6.82-6.14-18.82-13.81-18.82-13.81s-1.43.34-3.28 1.69c23.47 15.49 39.17 37.87 45.69 46.71 1.53 1.54 2.48 2.66 2.66 3.22l.89-.35s-13.11-25.05-27.15-37.46Z" class="cls-4"/>
  <path d="M185.86 183.16c-.15 0-.29-.03-.43-.1a.97.97 0 0 1-.52-.6c-.03-.1-.31-.7-2.42-2.82-.03-.03-.07-.07-.1-.11l-1.17-1.6c-7.22-9.85-22.25-30.34-44.27-44.88a1.01 1.01 0 0 1-.45-.81c0-.33.15-.64.41-.83 1.98-1.45 3.57-1.84 3.63-1.85.26-.06.54-.02.77.13.12.08 12.14 7.79 18.94 13.91 14.02 12.39 27.24 37.49 27.37 37.74.13.25.15.55.05.82-.1.27-.31.48-.57.58l-.89.35c-.12.05-.24.07-.36.07Zm-46.53-50.92c21.35 14.48 35.98 34.25 43.23 44.14-4.76-8.15-14.02-22.8-23.62-31.28-5.99-5.39-16.18-12.08-18.3-13.46-.3.11-.75.3-1.31.61Z"/>
  <path d="M186.79 186.34s-64.81 8.89-82.67 10.7c-1.74 0-3.41-4.12-3.41-4.12l83.59-10.16 2.49 3.58Z" class="cls-5"/>
  <path d="M104.11 198.04c-2.24 0-3.88-3.63-4.34-4.75-.12-.29-.09-.62.06-.88.16-.27.43-.45.74-.49l83.59-10.16c.37-.04.73.12.94.42l2.49 3.58c.2.29.23.65.09.97-.14.32-.44.54-.78.59-.65.09-65.03 8.92-82.71 10.71h-.1Zm-1.92-4.3c.67 1.25 1.46 2.25 1.89 2.29 16.15-1.64 70.82-9.08 80.95-10.47l-1.21-1.75-81.62 9.92Z"/>
  <path d="m188.52 183.72-1.77-1.91-2.45.95 2.49 3.58 1.73-2.62z" class="cls-5"/>
  <path d="M186.79 187.34c-.33 0-.63-.16-.82-.43l-2.49-3.58c-.17-.25-.22-.57-.14-.86.09-.29.31-.53.59-.64l2.45-.95c.38-.15.82-.05 1.1.25l1.77 1.91c.31.34.36.85.1 1.23l-1.74 2.62c-.18.28-.49.44-.82.45h-.01Zm-.94-4.11.92 1.33.49-.74-.78-.83-.64.25ZM113.05 123.04s3.58 4.81 10.23 5.93-2.56 2.86-3.58 2.86-3.39.16-5.07-.84c-.92-3.06-1.49-4.79-1.78-6.34-.29-1.54.21-1.61.21-1.61ZM113.32 74.28s4.19-2.75 5.83-1.42c1.64 1.33-5.18 4.86-5.18 4.86l-.65-3.44ZM112.2 63.56s3.77-3.12 5.1-1.18c1.33 1.94-4.86 5.95-4.86 5.95l-.24-4.77ZM112.28 53.61s3.47-2.64 4.62-1.98.65 3.43-4.62 6.55c-.04-2.3 0-4.57 0-4.57ZM161.31 137.89s4.85.15 4.78 2.06-4.49 1.7-4.49 1.7.12-3.09-.28-3.76ZM210.33 136.59s-3.99.76-4.6 3.18 5.22 1.88 5.22 1.88l-.62-5.07ZM210.93 144.58s-4.2-.2-4.13 2.25 4.13 3.27 4.13 3.27.05-2.5 0-5.52Z"/>
  <path d="M226.93 150.25z" class="cls-5"/>
  <circle cx="226.93" cy="150.25" r="1"/>
  <path d="M243.96 151.84h-1.03s-34.98 12.18-54.41 31.88c0 0 37.76-24.81 60.05-26.25-.68-1.84-2.51-4.12-4.62-5.64Z" class="cls-5"/>
  <path d="M188.52 184.72a1.009 1.009 0 0 1-.71-1.71c19.37-19.64 54.44-32 54.79-32.12a.96.96 0 0 1 .33-.06h1.03c.21 0 .41.07.58.19 2.21 1.59 4.21 4.04 4.97 6.1a.999.999 0 0 1-.87 1.34c-21.78 1.4-59.19 25.84-59.57 26.08-.17.11-.36.16-.55.16Zm54.58-31.88c-2.19.78-26.42 9.63-44.91 23.77 12.43-7.27 33.59-18.42 48.85-20.01-.79-1.33-2.05-2.73-3.41-3.76h-.52Z"/>
  <path d="M204.63 166.49c-7.37 5.8-14.04 11.65-17.27 15.98 0 0 6.53-7.07 17.27-15.98Z" class="cls-5"/>
  <path d="M187.37 183.47a1 1 0 0 1-.8-1.6c2.91-3.91 8.78-9.35 17.45-16.17a1 1 0 0 1 1.4.16c.34.43.28 1.05-.14 1.4-10.55 8.76-17.11 15.82-17.17 15.89-.2.21-.46.32-.73.32Z"/>
  <path d="M230.32 141.66c-18.63 13.12-42.95 40.81-42.95 40.81l1.16 1.25c19.43-19.7 54.41-31.88 54.41-31.88l6.66-1.73s-13.65-8.51-19.28-8.44Z" class="cls-4"/>
  <path d="M188.52 184.72h-.02c-.27 0-.53-.12-.72-.32l-1.16-1.25a.997.997 0 0 1-.02-1.34c.24-.28 24.62-27.93 43.13-40.97.17-.12.36-.18.56-.18h.07c5.89 0 19.19 8.24 19.75 8.6.34.21.52.6.46 1s-.35.72-.74.82l-6.66 1.73c-.27.1-34.91 12.31-53.95 31.62a1 1 0 0 1-.71.3Zm42.1-42.06c-14.7 10.44-33.09 30.08-39.86 37.51 19.77-17.99 51.5-29.17 51.83-29.29l4.44-1.16c-4.54-2.66-12.55-6.89-16.42-7.07ZM161.21 143.92c-.02-.11.07-.2.18-.2 1.17.02 4.54.29 4.42 2.06-.13 1.91-2.3 1.53-2.3 1.53s-1.71-1.42-2.2-1.85c-.13-.41-.04-1.14-.1-1.54Z"/>
  <path d="M298.24 99.92s5.92 14.59 6.13 39.11c.21 24.52-9.51 25.15-12.05 24.31s-9.72-6.55-6.34-19.45c3.38-12.89 6.76-27.69.21-41.64-11.41 1.27-24.31 2.96-29.17-3.59-4.86-6.55-3.38-8.67 1.27-9.72 4.65-1.06 19.87 2.96 36.15-2.33 16.28-5.28 24.94-15.85 31.28-16.28 6.34-.42 11.84 9.51 6.34 13.11-5.5 3.59-18.64 13.81-33.82 16.49ZM360.18 103.83s2.22 12.25 1.27 18.17c-.95 5.92-1.9 11.79 3.8 12.9s8.24-5.36 5.87-17.98c-1.27-8.18.87-17.69.89-19.28s-1.21-5.76-7.07-4.7c-5.87 1.06-6.5 4.86-4.76 10.89ZM368.9 80.21c2.54-4.6-1.27-11.41-6.02-10.94-4.76.48-9.51 3.65-8.56 8.24.95 4.6 3.54 6.66 7.64 6.66s6.95-3.96 6.95-3.96Z" class="cls-8"/>
  <path d="M220.11 66.6s-7.64-11.73-26.45-12.55c-18.82-.82-31.36 12.55-31.36 12.55s-1.91-5.49-6-6.29-8.73-3.25-8.73-3.25-2.18 7.36 0 15.27 4.91 8.45 4.91 8.45c-3 5.45-4.09 10.09-3.82 12.82-5.73-1.91-9.38-2.13-9.79-1.88s-.51 3.68 1.02 7.08 6.83 6.32 6.83 6.32-5.93 1.12-8.59 3.78 3.68 4.4 11.35 4.7c-4.4 1.43-7.16 6.24-6.55 6.55s6.65-1.43 8.8-3.38c5.62 4.91 12.89 16.77 39.99 16.77 6.78 0 12.11-1.1 16.29-2.75 12.56-4.95 14.8-14.84 14.8-14.84 3.17.72 10.02 1.12 10.74.31.72-.82-5.52-5.52-5.52-5.52 7.47-.2 12.68-4.19 12.48-6.75-1.12-1.49-10.33-1.49-10.33-1.49 5.83-2.81 6.75-4.65 7.06-6.49s-4.81-2.56-5.83-3.68c.2-2.45-1.12-8.59-1.12-8.59 6.44-7.57 8.7-10.64 10.23-19.33-2.36-1.64-13.16-3.41-20.39 2.18Z" class="cls-3"/>
  <path d="M191.99 54.02c.55 0 1.1.01 1.66.04 18.82.82 26.45 12.55 26.45 12.55 3.72-2.88 8.38-3.8 12.36-3.8 3.75 0 6.89.83 8.04 1.62-1.53 8.69-3.79 11.76-10.23 19.33 0 0 1.33 6.14 1.12 8.59 1.02 1.12 6.14 1.84 5.83 3.68-.31 1.84-1.23 3.68-7.06 6.49 0 0 9.2 0 10.33 1.49.2 2.56-5.01 6.55-12.48 6.75 0 0 6.24 4.7 5.52 5.52-.28.32-1.49.45-3.06.45-2.44 0-5.74-.32-7.68-.76 0 0-2.24 9.9-14.8 14.84-4.19 1.65-9.52 2.75-16.29 2.75-27.1 0-34.36-11.86-39.99-16.77-1.98 1.79-7.27 3.41-8.56 3.41-.11 0-.19-.01-.24-.04-.61-.31 2.15-5.11 6.55-6.55-7.67-.31-14.01-2.05-11.35-4.7 2.66-2.66 8.59-3.78 8.59-3.78s-5.29-2.91-6.83-6.32c-1.53-3.4-1.43-6.83-1.02-7.08.09-.05.32-.09.68-.09 1.36 0 4.59.46 9.11 1.96-.27-2.73.82-7.36 3.82-12.82 0 0-2.73-.55-4.91-8.45-2.18-7.91 0-15.27 0-15.27s4.64 2.45 8.73 3.25c4.09.8 6 6.29 6 6.29s11.81-12.58 29.7-12.58m0-3c-13.75 0-24.04 6.81-28.87 10.77-1.33-1.88-3.36-3.86-6.26-4.43-3.59-.7-7.86-2.94-7.9-2.96-.44-.23-.92-.35-1.4-.35a2.981 2.981 0 0 0-2.87 2.14c-.1.33-2.4 8.29-.02 16.92 1.21 4.38 2.67 6.96 4 8.48-1.37 2.86-2.31 5.61-2.76 8.06-2.87-.74-5.08-1.02-6.37-1.02-.69 0-1.51.06-2.27.54-3.25 2.03-.92 9.08-.12 10.86.67 1.5 1.82 2.86 3.04 4.02-1.52.69-3.05 1.58-4.2 2.73-2.01 2.01-1.52 4.03-1.21 4.8.33.84 1.15 2.95 6.94 4.17-1.11 1.44-1.8 2.89-1.88 3.93-.1 1.36.56 2.56 1.73 3.15.47.24.99.35 1.58.35 1.52 0 5.34-1.09 8.21-2.61l.78.78c5.64 5.68 15.07 15.19 39.55 15.19 6.56 0 12.41-1 17.39-2.96 9.82-3.87 14.02-10.54 15.67-14.26 1.84.24 3.95.39 5.71.39 2.49 0 4.24-.25 5.32-1.48.6-.68.88-1.57.78-2.49-.06-.58-.15-1.42-1.78-3.15 3.15-1.05 5.48-2.65 6.84-4.17 1.69-1.88 1.94-3.58 1.85-4.68-.05-.57-.25-1.12-.6-1.57-.38-.5-1.09-1.43-4.23-2.05.82-1.09 1.3-2.27 1.52-3.62.6-3.57-3.1-4.96-5.31-5.79-.15-.06-.33-.12-.51-.19-.14-2-.56-4.39-.86-5.95 5.68-6.73 8.35-10.52 9.96-19.64.2-1.15-.28-2.32-1.24-2.98-1.89-1.31-5.71-2.16-9.75-2.16-3.21 0-7.62.53-11.74 2.81-3.49-3.8-11.95-10.9-26.95-11.55-.59-.03-1.2-.04-1.79-.04Z"/>
  <path d="M208 130.8c2.2-.87 4.08-1.89 5.69-2.98-19 1.41-40.08 3.46-49.99-16.94-10.48-21.58 4.17-45.84 12.48-53.53-8.7 3.73-13.9 9.25-13.9 9.25s-1.91-5.49-6-6.29-8.73-3.25-8.73-3.25-2.18 7.36 0 15.27c2.18 7.91 4.91 8.45 4.91 8.45-3 5.45-4.09 10.09-3.82 12.82-5.73-1.91-9.38-2.13-9.79-1.88-.41.26-.51 3.68 1.02 7.08s6.83 6.32 6.83 6.32-5.93 1.12-8.59 3.78c-2.66 2.66 3.68 4.4 11.35 4.7-4.4 1.43-7.16 6.24-6.55 6.55.61.31 6.65-1.43 8.8-3.38 5.62 4.91 12.89 16.77 39.99 16.77 6.78 0 12.11-1.1 16.29-2.75Z" class="cls-6"/>
  <path d="M160.02 69.26s-4.04 5.16-4.7 7.21c-2.1-3.58-3.48-8.95-4.04-13.09 2.86 1.43 6.24 1.38 8.74 5.88Z" class="cls-1"/>
  <path d="M160.02 69.26c-.74 1.3-2.49 4.35-3.16 5.64-.32.61-.64 1.27-.79 1.82-.11.41-.54.66-.96.54a.835.835 0 0 1-.49-.39c-1.92-3-3-6.44-3.71-9.9-.25-1.17-.42-2.35-.53-3.54-.05-.48.3-.91.78-.96.18-.02.35.02.5.1 1.44.78 3.28 1.28 4.9 2.33 1.61.99 2.8 2.62 3.45 4.35Zm0 0c-1.09-1.4-2.4-2.61-4.02-3.31-1.65-.73-3.42-.99-5.13-1.77l1.28-.92c.82 4.38 1.87 8.8 3.84 12.81l-1.44.16c1.31-2.74 3.36-4.85 5.46-6.96Z"/>
  <path d="M222.83 69.94s3.58 4.51 4.66 7.74c1.18-1.72 5.33-7.55 6.61-8.37-1.63-.76-6.93-2.9-11.28.63Z" class="cls-1"/>
  <path d="M222.83 69.94c2.23 2.16 4.23 4.59 5.47 7.48l-1.5-.21c2.07-3.08 3.94-6.25 6.79-8.69l.12 1.66c-3.36-1.73-7.52-2.27-10.88-.23Zm0 0c1.38-1.53 3.43-2.47 5.5-2.62 1.39-.26 8.66.69 6.29 2.78-2.02 1.98-4.63 5.8-6.43 8.05-.36.6-1.33.47-1.5-.21-.84-2.77-2.48-5.41-3.86-8.01ZM197.17 94.66c0-.51-1.53-1.87-3.17-1.39s-2.45.68-2.1 1.7c.36 1.02 1.99 2.66 2.25 2.66s3.02-2.45 3.02-2.97Z"/>
  <path d="M194.15 98.12c-.64 0-2.38-2.02-2.72-2.99-.15-.44-.15-.81.02-1.13.32-.61 1.1-.84 2.28-1.18l.13-.04c.97-.28 2.07-.05 2.96.62.26.19.85.7.85 1.25 0 .77-2.93 3.46-3.52 3.46Zm.55-4.46c-.18 0-.37.02-.56.08l-.13.04c-.8.23-1.55.45-1.67.68-.04.08 0 .25.04.34.26.73 1.33 1.88 1.78 2.25.6-.43 2.2-1.91 2.49-2.41-.17-.3-.98-.97-1.95-.97Zm1.97 1.03Z"/>
  <path d="m203.79 107.76-.96-.52-1.59-.95s-.23 6 .39 6.41c0 0 3.35-1.98 4.07-3.94-.35-.16-1.07-.53-1.07-.53l-.82-.48Z" class="cls-1"/>
  <path d="M203.79 107.76c-.88-.44-1.75-.89-2.64-1.32l.25-.14c.11 1.82.26 3.76.44 5.58.02.12.04.24.06.34 0 .1.12.21-.02.09h-.51c1.55-.94 3.4-1.87 4.27-3.55-.43-.1-1.29-.69-1.85-1Zm0 0c.6.41 1.37.66 1.94 1.03-.72 1.84-2.28 3.21-3.87 4.33-.46.35-.87-.44-.89-.64-.47-2.05-.1-4.16.1-6.22a.16.16 0 0 1 .18-.14c.84.54 1.64 1.18 2.55 1.64ZM187.8 83.28c.46.96-.43 1.21-1.01.92-.29-.14-1.97-2.1-3.99-3.52-1-.72-2.07-1.29-2.92-1.59-.43-.15-.79-.26-1.05-.32-.26-.07-.41-.13-.41-.18s.15-.09.42-.12c.14-.02.3-.03.5-.04.19.02.41.03.64.05.95.11 2.19.51 3.34 1.14 2.33 1.23 4.26 3.2 4.49 3.67ZM204.59 85.2c-.38.27-.68.24-.9.07-.22-.18-.3-.55-.18-.9.05-.17.53-.81 1.32-1.51.79-.71 1.9-1.47 3.07-2.04 2.34-1.18 4.83-1.54 4.86-1.36.06.2-2.17 1-4.18 2.32-1.01.65-1.95 1.41-2.65 2.08-.7.66-1.15 1.21-1.34 1.34ZM198.91 54.4s2.81 11.91-1.74 18.59c-1.55 1.77-4.45 4.19-4.7 2.64-.26-1.55-.07-17.35-3.1-21.62 4.47-.49 9.54.38 9.54.38ZM180.05 55.25s2.59 9.02-1.66 12.56c-1.39.68-1.77-8.79-3.76-9.92 2.86-1.51 5.42-2.64 5.42-2.64ZM212.4 59.14s2.59 9.02-1.66 12.56c-1.39.68-2.25-13.86-4.24-14.98 3.58.73 5.9 2.42 5.9 2.42Z"/>
  <path d="M185.76 89.01s-5.33-6.3-14.11-7.49c-.66 1.99-1.1 9.75 5.65 11.61 1.94 1.21 5.5-.39 8.46-4.13Z" class="cls-1"/>
  <path d="M171.62 81.32c5.51 1.04 11.23 3.16 14.97 7.54-1.21 3.33-4.82 5.99-8.44 5.49-3.41-.52-5.9-3.6-6.75-6.72-.55-2.09-.54-4.34.22-6.31-.43 2.06-.26 4.18.49 6.07 2.51 6.63 9.43 7.78 12.96 1.38l.13.71c-3.53-4.02-8.67-6.25-13.58-8.16Z"/>
  <path d="M203.34 91.06c2.65-2.45 6.77-5.87 14.46-4.7-.92 1.84-.99 5.35-2.37 6.54-2.72 2.34-5.3 3.47-7.28 3.07-2.28-.57-4.59-2.57-4.81-4.9Z" class="cls-1"/>
  <path d="M203.34 91.06c3.56-4.34 9.61-7.09 15.16-5.16-.22 2.13-.6 4.29-1.71 6.24-3.04 5.73-12.3 6.24-13.45-1.08 1.94 6.26 9.43 5.53 12.16.37.81-1.54 1.26-3.3 1.51-5.1l.5.77c-5.02-1.66-10.29.68-14.17 3.96Z"/>
  <path d="m182.49 107.76-1.39.61-1.66.68s3.02 3 4.29 3.23c.52.09 1.39-5.71 1.39-5.71l-1.39.64-1.23.55Z" class="cls-1"/>
  <path d="M182.49 107.76c-1 .46-2.02.91-3 1.41l.04-.22c1.08.88 2.23 1.72 3.41 2.43.28.17.57.33.86.4-.1-.03-.24.01-.32.07-.07.06-.03.04-.02 0 .63-1.63 1.09-3.6 1.54-5.31l.15.11c-.9.34-1.79.72-2.67 1.1Zm0 0c.87-.4 1.74-.82 2.58-1.29.07-.04.17.03.15.11-.2 1.96-.13 3.87-.88 5.76-.07.2-.41.5-.7.43-1.85-.6-3.04-2.28-4.31-3.64-.05-.05-.04-.14.01-.18 1.07-.35 2.12-.73 3.15-1.19Z"/>
  <path d="m165.97 102.07 6.91 4.31c1.57.96 3.11 2 4.77 2.79.14.05.06.02.25 0 3.15-1.1 6.2-2.63 9.22-4.07 2.07-1.06 5.22-2.51 7.08-3.79a.51.51 0 0 1 .61.03c3.49 2.78 7.45 5.4 11.47 7.4.1.04.21.05.17.05 2.14-.89 4.33-1.93 6.39-3.03.4-.24.85-.44 1.16-.79-1.35 1.31-3.19 2.07-4.8 3.02-.85.44-1.66.9-2.56 1.29-.26.08-.39 0-.52-.02-4.3-1.89-8.26-4.31-11.96-7.24l.61.03c-5.25 3.27-10.86 5.83-16.68 7.9-.4.15-.89-.09-1.22-.3-3.78-2.3-7.34-4.93-10.9-7.56Z"/>
  <ellipse cx="167.87" cy="97.24" class="cls-7" rx="2.98" ry="6.79" transform="rotate(-83.5 167.878 97.239)"/>
  <ellipse cx="217.8" cy="100.21" class="cls-7" rx="6.79" ry="2.98" transform="rotate(-5.25 217.809 100.148)"/>
  <path d="M161.64 144.47c-.32.51-.71.58-.95.39-.24-.17-.42-.49-.45-.82-.02-.17 0-5.03.04-6.39.1-2.71-.11-5.39.11-5.42.19-.03.9 2.48 1.14 5.25.13 1.38.26 6.74.1 7ZM275.09 196.02c-.45.2-.98.18-1.17-.24l-4.49-10.1c-.19-.43.22-.84.73-1.07.5-.22 1.09-.26 1.29.17l3.99 8.96 3.79-1.69c.4-.18.8.17 1 .62.19.44.19.98-.21 1.16l-4.92 2.19ZM279.39 181.62c-.15-.45.3-.82.83-.99.52-.17 1.11-.16 1.26.3l3.48 10.48c.14.44-.31.84-.83 1.01-.53.18-1.12.12-1.27-.31l-3.48-10.48ZM285.15 180.14c-.03-.06-.06-.12-.07-.16-.12-.53.58-1.07 1.16-1.2.36-.08.67-.03.83.26l4.58 8.41.48-9.55c.01-.33.27-.51.63-.6.58-.13 1.45.07 1.56.59.01.05 0 .1 0 .17l-.81 11.15c-.04.53-.6.9-1.23 1.04s-1.28.05-1.56-.41l-5.57-9.7ZM298.22 177.07c-.03-.36.22-.7.65-.75l3.35-.32c2.22-.21 4.09.46 4.35 3.15.19 1.95-.66 3.09-1.89 3.6l2.61 3.9c.08.08.1.19.11.26.05.56-.62 1.22-1.26 1.28-.3.03-.61-.13-.81-.45l-2.85-4.44-1.42.14.42 4.42c.04.46-.47.75-1.03.8-.54.05-1.12-.13-1.17-.59l-1.05-11Zm2.32 1.04.34 3.6 1.86-.18c1.1-.11 1.77-.63 1.64-1.97-.13-1.34-.88-1.74-1.98-1.64l-1.86.18ZM309.47 186.98s.02-.1.04-.17l3.69-10.56c.17-.5.81-.72 1.44-.69.65.02 1.26.29 1.4.8l2.86 10.81c.01.07.03.12.03.17-.02.53-.83.89-1.43.86-.37-.01-.66-.14-.73-.47l-.56-2.28-3.89-.15-.73 2.23c-.1.32-.39.43-.76.41-.59-.02-1.38-.43-1.36-.97Zm6.33-3.28-1.28-5.27-1.68 5.16 2.96.11ZM323.41 177.02c.06-.35.4-.62.82-.54l3.31.59c2.19.39 3.82 1.55 3.34 4.21-.34 1.92-1.47 2.8-2.79 2.96l1.47 4.46c.05.1.05.22.04.28-.1.55-.92 1.01-1.56.9-.3-.05-.55-.29-.66-.65l-1.55-5.04-1.41-.25-.78 4.37c-.08.45-.66.59-1.21.49-.54-.1-1.05-.43-.97-.88l1.94-10.88Zm1.95 1.63-.64 3.57 1.84.33c1.09.19 1.87-.13 2.11-1.45s-.38-1.92-1.47-2.11l-1.84-.33ZM335.46 179.57c.13-.46.71-.5 1.25-.34.52.15 1 .5.87.96l-3.08 10.61c-.13.44-.73.51-1.26.36-.54-.16-1-.54-.87-.98l3.08-10.61ZM337.12 191.28s.05-.09.1-.14l7.07-8.67c.33-.42 1.01-.4 1.59-.16.6.24 1.09.7 1.04 1.23l-.99 11.14c-.01.07-.01.12-.03.17-.2.49-1.09.55-1.64.32-.35-.14-.57-.36-.53-.69l.25-2.34-3.61-1.47-1.45 1.85c-.2.27-.51.27-.86.13-.55-.22-1.15-.87-.95-1.38Zm7.08-.92.6-5.39-3.34 4.28 2.74 1.12ZM357.68 194.42l2.23 1.31c.38.22.38.72.15 1.12-.2.34-.62.62-1.03.38l-2.23-1.31-1.74 2.94 4.15 2.44c.38.22.37.75.1 1.2-.23.4-.67.71-1.08.47l-5.21-3.07c-.42-.25-.71-.7-.48-1.09l5.6-9.51c.23-.4.76-.36 1.19-.11l5.21 3.07c.41.24.35.78.12 1.17-.27.45-.72.72-1.1.5l-4.15-2.44-1.73 2.93ZM371.27 196.14c.11-.34.51-.55 1-.4l3.26 1.01c2.06.64 3.38 2.14 2.55 4.8l-.03.1c-.83 2.66-2.82 3.17-4.96 2.5l-1.82-.57-1.17 3.77c-.14.44-.74.5-1.26.34-.54-.17-.98-.55-.85-.99l3.28-10.55Zm1.74 1.86-1.22 3.93 1.82.57c1.06.33 1.89-.07 2.29-1.34l.06-.2c.39-1.27-.07-2.07-1.12-2.4l-1.82-.57ZM378.63 209.54l.05-.17 4.39-10.29c.21-.49.86-.66 1.48-.6.64.07 1.24.37 1.34.89l2.14 10.98c0 .07.02.12.02.17-.06.52-.89.83-1.48.77-.37-.04-.65-.19-.7-.52l-.41-2.32-3.87-.41-.88 2.18c-.12.31-.42.4-.79.36-.59-.06-1.35-.52-1.29-1.06Zm6.54-2.85-.92-5.35-2.02 5.04 2.94.31ZM391.19 199.63c-.04-.35.24-.71.75-.77l3.4-.4c2.14-.25 3.95.58 4.28 3.35v.1c.33 2.77-1.28 4.04-3.51 4.3l-1.89.22.46 3.92c.05.46-.48.76-1.02.82-.56.07-1.12-.11-1.18-.56l-1.28-10.98Zm2.34.99.48 4.09 1.89-.22c1.1-.13 1.7-.83 1.55-2.15l-.02-.2c-.15-1.32-.9-1.86-2-1.74l-1.89.22ZM404.96 201.88l2.46-.78c.42-.13.79.19.93.63.12.37.05.88-.41 1.02l-2.46.78 1.03 3.26 4.59-1.45c.42-.13.8.23.96.73.14.44.08.97-.38 1.12l-5.77 1.83c-.47.15-1 .07-1.13-.37l-3.33-10.52c-.14-.44.24-.81.71-.96l5.77-1.83c.45-.14.81.26.95.7.16.5.05 1.02-.37 1.15l-4.59 1.45 1.03 3.24ZM417 204.94c-.44.21-.98.21-1.18-.21l-4.8-9.95c-.21-.43.19-.85.7-1.09.49-.24 1.08-.3 1.29.13l4.26 8.83 3.73-1.8c.4-.19.8.14 1.02.58.21.43.22.97-.18 1.16l-4.85 2.34ZM424.5 200.14s-.04-.1-.06-.16l-2.91-10.8c-.14-.51.26-1.05.8-1.38.55-.34 1.21-.48 1.61-.13l8.47 7.3c.05.05.09.08.12.13.28.45-.19 1.2-.69 1.52-.32.2-.62.25-.87.02l-1.75-1.57-3.29 2.07.66 2.26c.1.32-.08.57-.4.77-.5.32-1.38.42-1.67-.04Zm3.38-6.28-4.03-3.63 1.53 5.2 2.5-1.57ZM428.77 184.45c-.22-.28-.18-.72.16-.97l2.68-2.03c1.77-1.35 3.72-1.76 5.36.4 1.18 1.56 1.06 2.97.28 4.06l4.27 1.95c.11.03.19.11.23.17.34.45.12 1.36-.4 1.75-.24.18-.59.21-.93.04l-4.76-2.28-1.14.86 2.68 3.54c.28.37-.01.88-.46 1.22-.43.33-1.02.48-1.3.11l-6.67-8.81Zm2.52-.33 2.19 2.89 1.49-1.13c.88-.67 1.17-1.46.36-2.54s-1.67-1.02-2.55-.35l-1.49 1.13ZM437.6 177.56c-.31-.36-.02-.87.41-1.23.42-.35.98-.55 1.28-.19l7.09 8.47c.29.35.02.89-.4 1.24-.43.36-1 .53-1.29.17l-7.09-8.47ZM448.64 182.44s-.06-.09-.09-.15l-4.72-10.14c-.23-.48.08-1.08.55-1.5.48-.43 1.11-.68 1.56-.4l9.6 5.75c.06.04.1.07.14.1.35.39.02 1.22-.42 1.62-.28.25-.57.36-.85.17l-1.99-1.25-2.89 2.61 1.03 2.11c.15.3.02.58-.26.83-.44.4-1.29.66-1.65.25Zm2.25-6.77-4.59-2.89 2.4 4.87 2.2-1.98Z"/>
</svg>