<?xml version="1.0" standalone="no"?>
<!DOCTYPE svg PUBLIC "-//W3C//DTD SVG 20010904//EN"
 "http://www.w3.org/TR/2001/REC-SVG-20010904/DTD/svg10.dtd">
<svg version="1.0" xmlns="http://www.w3.org/2000/svg"
 width="1056.000000pt" height="1056.000000pt" viewBox="0 0 1056.000000 1056.000000"
 preserveAspectRatio="xMidYMid meet">
<metadata>
Created by potrace 1.14, written by Peter Selinger 2001-2017
</metadata>
<g transform="translate(0.000000,1056.000000) scale(0.100000,-0.100000)"
fill="#000000" stroke="none">
<path d="M3690 8982 c-114 -35 -194 -124 -249 -272 -16 -46 -42 -132 -44 -150
0 -3 -4 -21 -9 -40 -5 -19 -11 -55 -13 -80 -3 -25 -8 -61 -10 -81 -10 -65 -16
-132 -19 -211 -2 -42 -5 -80 -7 -85 -11 -24 3 -577 16 -663 2 -14 7 -56 10
-95 17 -170 28 -240 57 -385 7 -30 11 -59 9 -64 -1 -4 3 -22 8 -40 6 -17 13
-47 16 -66 3 -19 10 -53 16 -75 5 -22 12 -51 15 -65 3 -14 10 -43 16 -65 6
-22 11 -44 12 -50 1 -5 10 -36 19 -68 16 -51 16 -61 3 -90 -8 -17 -22 -54 -31
-82 -9 -27 -21 -59 -26 -70 -8 -17 -26 -78 -45 -150 -3 -11 -6 -24 -8 -30 -8
-28 -16 -63 -20 -85 -3 -14 -7 -34 -9 -45 -4 -19 -8 -39 -22 -125 -4 -19 -8
-48 -10 -65 -2 -16 -6 -46 -9 -65 -3 -19 -8 -77 -11 -128 -2 -51 -7 -97 -10
-102 -3 -5 -1 -12 5 -15 7 -4 7 -12 2 -18 -12 -17 -2 -370 13 -449 3 -12 7
-39 10 -60 3 -20 8 -50 10 -65 7 -49 16 -87 30 -135 7 -25 11 -49 8 -52 -4 -3
-2 -6 4 -6 6 0 14 -15 17 -32 7 -39 5 -53 -9 -54 -5 0 -17 -4 -25 -7 -8 -4
-26 -8 -40 -11 -14 -2 -52 -11 -85 -19 -33 -9 -71 -18 -85 -21 -14 -3 -52 -13
-85 -21 -33 -9 -71 -18 -85 -21 -42 -8 -411 -104 -485 -126 -38 -11 -80 -22
-94 -25 -13 -2 -28 -6 -33 -9 -4 -3 -18 -7 -30 -10 -26 -6 -27 -6 -88 -23 -25
-7 -52 -15 -60 -16 -8 -2 -34 -10 -58 -19 -23 -8 -43 -15 -45 -14 -1 1 -32 -8
-69 -20 -37 -12 -74 -22 -83 -22 -8 0 -15 -4 -15 -8 0 -4 -9 -8 -19 -9 -11 -1
-68 -18 -128 -38 -59 -20 -112 -38 -118 -39 -5 -2 -17 -5 -25 -8 -8 -3 -69
-25 -135 -48 -66 -23 -134 -48 -152 -56 -17 -8 -36 -14 -42 -14 -6 0 -19 -4
-29 -10 -24 -14 -194 -80 -205 -80 -5 0 -23 -10 -40 -22 -18 -13 -32 -21 -32
-19 0 14 -66 -22 -80 -43 -30 -45 -14 -68 118 -171 67 -52 134 -106 149 -118
14 -12 39 -32 55 -44 16 -12 42 -34 57 -48 15 -14 30 -25 34 -25 4 0 14 -8 23
-17 8 -10 35 -34 59 -53 24 -19 60 -49 80 -66 19 -17 46 -39 59 -50 13 -10 33
-28 45 -39 12 -11 55 -49 96 -85 41 -36 85 -74 97 -85 12 -11 57 -51 100 -90
100 -91 503 -490 503 -499 0 -4 17 -23 38 -44 60 -59 146 -160 254 -297 34
-44 65 -82 68 -85 4 -3 26 -35 50 -72 24 -38 49 -68 54 -68 5 0 7 -3 3 -6 -3
-3 7 -17 24 -31 16 -14 29 -29 29 -34 0 -11 10 -24 66 -86 36 -41 45 -46 90
-48 27 -1 74 1 104 5 30 4 87 11 125 15 39 4 84 9 100 11 17 2 48 5 70 8 22 2
54 7 70 10 17 2 59 8 95 12 110 11 114 12 145 17 17 3 57 8 90 12 33 3 71 7
85 10 24 4 55 8 160 20 25 3 77 10 115 15 39 6 86 12 105 14 132 14 157 18
170 21 8 3 40 7 70 10 30 4 69 8 85 11 17 2 46 6 65 8 19 2 54 7 76 10 23 4
61 9 85 12 24 2 58 7 74 9 17 3 46 7 65 9 19 2 73 9 119 16 45 6 97 13 115 15
93 11 133 16 156 20 14 2 45 7 70 10 25 3 56 8 70 10 14 3 50 7 80 10 30 3 66
8 80 10 63 10 117 18 140 20 46 5 135 16 165 21 17 3 48 7 70 10 74 10 100 13
135 19 19 3 58 8 85 11 28 3 64 7 80 9 17 2 30 4 30 5 0 1 16 3 35 5 19 2 55
7 80 11 25 4 56 8 70 10 27 3 102 13 137 19 33 5 37 9 79 74 22 34 55 69 78
83 23 14 101 62 174 106 73 45 137 82 142 82 4 0 10 4 12 8 2 4 35 26 73 47
39 22 79 45 90 52 11 7 27 16 35 20 77 40 176 99 182 107 4 6 8 7 8 3 0 -5 15
0 33 11 56 34 325 175 337 177 3 0 16 7 30 15 57 33 315 151 340 156 8 2 16 8
18 13 2 6 11 11 20 11 8 0 47 14 86 31 39 17 80 35 91 40 95 40 147 59 162 62
10 1 24 6 31 11 7 4 25 11 40 16 15 4 79 25 142 45 63 20 126 38 140 41 14 3
43 10 65 16 22 6 47 12 55 14 8 1 24 4 35 7 28 6 106 20 130 23 100 10 142 17
153 26 17 15 15 48 -7 90 -26 51 -119 168 -134 168 -15 1 17 20 43 26 11 2 30
6 41 9 160 35 158 77 -6 166 -33 18 -76 42 -95 54 -58 36 -290 150 -365 180
-38 15 -79 31 -90 36 -11 4 -40 14 -64 22 l-44 14 134 89 c74 48 188 119 254
157 119 68 145 89 145 114 0 21 -44 43 -101 50 -110 15 -585 6 -689 -12 -14
-2 -50 -6 -80 -9 -59 -5 -130 -15 -170 -22 -34 -7 -75 -13 -107 -18 -16 -3
-71 -14 -123 -26 -52 -12 -103 -23 -112 -25 -9 -2 -26 -8 -36 -14 -17 -9 -22
-7 -31 21 -22 64 -16 82 42 113 28 16 58 35 65 42 7 7 19 13 27 13 7 0 15 7
19 15 3 8 10 15 16 15 5 0 22 10 37 23 45 36 223 218 223 227 0 5 10 21 23 37
13 15 39 57 58 93 19 36 38 68 43 72 5 3 32 4 60 1 28 -3 112 -6 186 -6 155 0
209 16 250 74 40 56 30 145 -22 203 -25 28 -22 43 10 51 15 4 29 6 31 5 2 -1
7 2 10 7 3 4 29 19 56 33 53 26 137 89 170 129 84 101 101 214 43 282 -19 21
-107 75 -115 71 -2 -1 -15 1 -31 4 l-28 6 29 59 c36 75 44 156 21 204 -23 50
-84 99 -162 131 -84 35 -86 37 -88 82 -1 20 -3 37 -4 37 -1 0 -3 14 -5 30 -4
33 -12 87 -20 125 -3 18 6 37 37 75 24 27 46 52 50 53 5 2 8 10 8 18 0 8 4 14
8 14 4 0 30 32 57 71 28 39 61 84 73 100 13 16 20 29 15 29 -4 0 -3 4 2 8 28
19 134 268 150 350 1 10 8 35 13 57 13 47 22 99 26 140 4 40 -31 101 -71 125
-35 20 -149 58 -198 66 -260 39 -481 15 -676 -73 l-65 -30 -60 56 c-100 93
-228 191 -251 191 -7 0 -13 4 -13 8 0 20 -304 157 -395 178 -5 2 -37 10 -70
19 -33 9 -69 18 -80 19 -11 2 -36 6 -55 10 -19 3 -51 8 -70 11 -19 2 -35 4
-35 5 0 11 -383 17 -450 7 -22 -3 -56 -9 -75 -12 -19 -3 -48 -8 -65 -10 -16
-2 -48 -9 -70 -15 -22 -6 -49 -12 -60 -15 -91 -17 -308 -101 -430 -166 -44
-23 -90 -47 -102 -53 -13 -6 -23 -14 -23 -18 0 -5 -4 -8 -10 -8 -10 0 -122
-75 -202 -135 l-46 -36 -34 42 c-49 61 -152 134 -202 143 -86 16 -239 68 -328
112 -96 47 -128 54 -169 37 -66 -28 -80 -50 -104 -163 -27 -131 -39 -372 -23
-465 3 -22 9 -58 12 -80 8 -51 12 -71 25 -113 5 -18 10 -35 10 -37 1 -3 1 -6
2 -7 0 -2 2 -11 4 -21 12 -63 112 -271 148 -309 28 -29 -1 -58 -38 -39 -5 3
-21 6 -35 7 -14 1 -38 5 -55 8 -148 29 -576 27 -731 -3 l-42 -8 -22 71 c-21
66 -26 83 -28 96 -1 3 -11 32 -22 65 -12 33 -23 67 -25 75 -2 8 -17 66 -35
129 -44 158 -82 331 -72 331 2 0 0 6 -5 13 -9 12 -9 231 0 402 25 446 25 719
1 857 -2 16 -6 39 -8 53 -8 48 -64 130 -105 153 -39 22 -115 28 -161 14z"/>
</g>
</svg>
